<?xml version="1.0" encoding="utf-8"?>
<!-- Generator: Adobe Illustrator 18.0.0, SVG Export Plug-In . SVG Version: 6.00 Build 0)  -->
<!DOCTYPE svg PUBLIC "-//W3C//DTD SVG 1.1//EN" "http://www.w3.org/Graphics/SVG/1.1/DTD/svg11.dtd">
<svg version="1.1" id="Layer_1" xmlns="http://www.w3.org/2000/svg" xmlns:xlink="http://www.w3.org/1999/xlink" x="0px" y="0px"
	 viewBox="0 0 40 40" enable-background="new 0 0 40 40" xml:space="preserve">
<path d="M20,38.1c-9.3,0-16.8-7.5-16.8-16.8c0-5.9,3.2-11.5,8.3-14.5l1.5,2.6c-4.2,2.5-6.8,7-6.8,11.9C6.3,28.9,12.4,35,20,35
	s13.7-6.2,13.7-13.7c0-4.9-2.6-9.4-6.8-11.9l1.5-2.6c5.1,3,8.3,8.6,8.3,14.5C36.8,30.5,29.3,38.1,20,38.1z M21.5,1.9h-3v13.9h3V1.9z
	"/>
</svg>
