<?xml version="1.0" encoding="utf-8"?>
<!-- Generator: Adobe Illustrator 18.0.0, SVG Export Plug-In . SVG Version: 6.00 Build 0)  -->
<!DOCTYPE svg PUBLIC "-//W3C//DTD SVG 1.1//EN" "http://www.w3.org/Graphics/SVG/1.1/DTD/svg11.dtd">
<svg version="1.1" id="Layer_1" xmlns="http://www.w3.org/2000/svg" xmlns:xlink="http://www.w3.org/1999/xlink" x="0px" y="0px"
	 viewBox="0 0 30 30" enable-background="new 0 0 30 30" xml:space="preserve">
<path d="M27,14.8c-2-4.9-6.7-8.1-12-8.1S5,9.9,3,14.8L3,15L3,15.2c2,4.9,6.7,8.1,12,8.1s10-3.2,12-8.1L27,15L27,14.8z M15,8.8v1
	c-1.9,0-3.4,1.5-3.4,3.4h-1C10.6,10.8,12.6,8.8,15,8.8z M15,22.3c-4.8,0-9.1-2.8-11-7.3c1.2-2.9,3.6-5.2,6.4-6.4
	c-1.1,1.2-1.9,2.8-1.9,4.5c0,3.6,2.9,6.5,6.5,6.5s6.5-2.9,6.5-6.5c0-1.8-0.7-3.4-1.9-4.5c2.8,1.2,5.1,3.4,6.4,6.4
	C24.1,19.4,19.8,22.3,15,22.3z"/>
</svg>
