<?xml version="1.0" standalone="no"?> 
<!DOCTYPE svg PUBLIC "-//W3C//DTD SVG 1.1//EN" "http://www.w3.org/Graphics/SVG/1.1/DTD/svg11.dtd" >
<svg xmlns="http://www.w3.org/2000/svg">
<defs>
  <font id="fonticons" horiz-adv-x="1000">
    <font-face font-family="fonticons"
      units-per-em="1190.551" ascent="1190.551"
      descent="0" />
    <missing-glyph horiz-adv-x="0" />
    <glyph glyph-name="loupe"
      unicode="&#xE001;"
      horiz-adv-x="1190.551" d=" M964.34631 253.9445282999999L793.7403517 424.6695417000001C845.29121 484.1970917 877.0789217 559.5589699999999 877.0789217 642.89754C877.0789217 825.4090083000001 730.2839834 972.3230017 547.65346 972.3230017S218.2279983 825.4090083 218.2279983 642.8975399999999S365.1419917 313.4720782999999 547.65346 313.4720782999999C630.99203 313.4720782999999 706.3539083 345.25979 765.8814582999998 396.8106482999999L936.6064717 226.2046900000001L964.34631 253.9445282999999zM257.9924017 642.8975399999999C257.9924017 801.5979883 388.9530117 932.5585983 547.65346 932.5585983S837.3145182999999 801.5979883 837.3145182999999 642.8975399999999S706.3539083 353.2364817 547.65346 353.2364817S257.9924017 484.1970917 257.9924017 642.8975399999999z" />
    <glyph glyph-name="cross"
      unicode="&#xE002;"
      horiz-adv-x="1190.551" d=" M623.0153382999999 595.2755L1011.9683499999998 206.3224882999999L984.2285117 178.5826500000001L595.2755 567.5356617L206.3224883 178.5826500000001L178.58265 206.3224882999999L567.5356617 595.2755L178.58265 984.2285116999998L206.3224883 1011.9683499999998L595.2755 623.0153382999999L984.2285117 1011.9683499999998L1011.9683499999998 984.2285116999998L623.0153382999999 595.2755z" />
    <glyph glyph-name="check"
      unicode="&#xE003;"
      horiz-adv-x="841.889" d=" M255.373 323.065L70.157 508.2809999999999L89.802 527.925L255.373 362.354L752.088 859.069L771.732 839.425L255.373 323.065z" />
    <glyph glyph-name="arrow_small_right"
      unicode="&#xE004;"
      horiz-adv-x="1190.551" d=" M1079.4725917 595.2755L900.8899417 416.69285L873.1501034 444.4326882999999L1004.1107134 575.3932983H138.9373017V615.0386465999999H1000.06284L873.0310482999998 745.9992565999999L900.7708865999998 773.7390948999999L1079.4725917 595.2755z" />
    <glyph glyph-name="plus"
      unicode="&#xE005;"
      horiz-adv-x="1190.551" d=" M992.919534 580.988888H609.562112V197.6314659999999H580.988888V580.988888H197.631466V609.562112H580.988888V992.9195339999998H609.562112V609.562112H992.919534V580.988888z" />
    <glyph glyph-name="note-new"
      unicode="&#xE006;"
      horiz-adv-x="1190.551" d=" M1127.0549466666664 190.4881600000001H1000.0628399999998V63.4960533333335H960.3778066666666V190.4881600000001H833.3856999999999V230.1731933333334H960.3778066666666V357.1653H1000.0628399999998V230.1731933333334H1127.0549466666664V190.4881600000001zM1138.9604566666665 1111.1809333333333H51.5905433333333V1031.8108666666667H1138.9604566666665V1111.1809333333333zM940.53529 908.7872633333334H206.3621733333333V869.10223H940.53529V908.7872633333334zM146.8346233333333 888.9447466666666C146.8346233333333 912.7557666666665 126.9921066666667 936.5667866666666 99.2125833333333 936.5667866666666C71.43306 936.5667866666666 51.5905433333333 912.7557666666665 51.5905433333333 888.9447466666666S71.43306 841.3227066666666 99.2125833333333 841.3227066666666C123.0236033333333 841.3227066666666 146.8346233333333 861.1652233333332 146.8346233333333 888.9447466666666zM1039.7478733333332 718.2991033333333H206.3621733333333V678.61407H1039.7478733333332V718.2991033333333zM146.8346233333333 698.4565866666667C146.8346233333333 722.2676066666666 126.9921066666667 746.0786266666667 99.2125833333333 746.0786266666667C75.4015633333333 746.0786266666667 51.5905433333333 726.2361099999999 51.5905433333333 698.4565866666667S71.43306 650.8345466666667 99.2125833333333 650.8345466666667C123.0236033333333 650.8345466666667 146.8346233333333 670.6770633333333 146.8346233333333 698.4565866666667zM813.5431833333332 527.8109433333334H206.3621733333333V488.12591H809.5746799999998V527.8109433333334zM146.8346233333333 507.9684266666667C146.8346233333333 531.7794466666668 126.9921066666667 555.5904666666667 99.2125833333333 555.5904666666667C75.4015633333333 555.5904666666667 51.5905433333333 535.74795 51.5905433333333 507.9684266666667C51.5905433333333 484.1574066666666 71.43306 460.3463866666667 99.2125833333333 460.3463866666667C123.0236033333333 460.3463866666667 146.8346233333333 480.1889033333334 146.8346233333333 507.9684266666667zM650.8345466666666 337.3227833333333H206.3621733333333V297.63775H650.8345466666666V337.3227833333333zM146.8346233333333 317.4802666666667C146.8346233333333 341.2912866666667 126.9921066666667 365.1023066666667 99.2125833333333 365.1023066666667C75.4015633333333 365.1023066666667 51.5905433333333 345.25979 51.5905433333333 317.4802666666667S71.43306 269.8582266666667 99.2125833333333 269.8582266666667C123.0236033333333 269.8582266666667 146.8346233333333 289.7007433333333 146.8346233333333 317.4802666666667zM750.0471299999999 146.8346233333334H206.3621733333333V107.14959H750.0471299999999V146.8346233333334zM146.8346233333333 126.9921066666666C146.8346233333333 150.8031266666667 126.9921066666667 174.6141466666667 99.2125833333333 174.6141466666667C75.4015633333333 174.6141466666667 51.5905433333333 154.77163 51.5905433333333 126.9921066666666S71.43306 79.3700666666666 99.2125833333333 79.3700666666666C123.0236033333333 79.3700666666666 146.8346233333333 99.2125833333334 146.8346233333333 126.9921066666666z" />
    <glyph glyph-name="note"
      unicode="&#xE007;"
      horiz-adv-x="1190.551" d=" M1138.9604566666665 1111.1809333333333H51.5905433333333V1031.8108666666667H1138.9604566666665V1111.1809333333333zM940.53529 908.7872633333334H206.3621733333333V869.10223H940.53529V908.7872633333334zM146.8346233333333 888.9447466666666C146.8346233333333 912.7557666666665 126.9921066666667 936.5667866666666 99.2125833333333 936.5667866666666C71.43306 936.5667866666666 51.5905433333333 912.7557666666665 51.5905433333333 888.9447466666666S71.43306 841.3227066666666 99.2125833333333 841.3227066666666C123.0236033333333 841.3227066666666 146.8346233333333 861.1652233333332 146.8346233333333 888.9447466666666zM1039.7478733333332 718.2991033333333H206.3621733333333V678.61407H1039.7478733333332V718.2991033333333zM146.8346233333333 698.4565866666667C146.8346233333333 722.2676066666666 126.9921066666667 746.0786266666667 99.2125833333333 746.0786266666667C75.4015633333333 746.0786266666667 51.5905433333333 726.2361099999999 51.5905433333333 698.4565866666667S71.43306 650.8345466666667 99.2125833333333 650.8345466666667C123.0236033333333 650.8345466666667 146.8346233333333 670.6770633333333 146.8346233333333 698.4565866666667zM813.5431833333332 527.8109433333334H206.3621733333333V488.12591H809.5746799999998V527.8109433333334zM146.8346233333333 507.9684266666667C146.8346233333333 531.7794466666668 126.9921066666667 555.5904666666667 99.2125833333333 555.5904666666667C75.4015633333333 555.5904666666667 51.5905433333333 535.74795 51.5905433333333 507.9684266666667C51.5905433333333 484.1574066666666 71.43306 460.3463866666667 99.2125833333333 460.3463866666667C123.0236033333333 460.3463866666667 146.8346233333333 480.1889033333334 146.8346233333333 507.9684266666667zM650.8345466666666 337.3227833333333H206.3621733333333V297.63775H650.8345466666666V337.3227833333333zM146.8346233333333 317.4802666666667C146.8346233333333 341.2912866666667 126.9921066666667 365.1023066666667 99.2125833333333 365.1023066666667C75.4015633333333 365.1023066666667 51.5905433333333 345.25979 51.5905433333333 317.4802666666667S71.43306 269.8582266666667 99.2125833333333 269.8582266666667C123.0236033333333 269.8582266666667 146.8346233333333 289.7007433333333 146.8346233333333 317.4802666666667zM750.0471299999999 146.8346233333334H206.3621733333333V107.14959H750.0471299999999V146.8346233333334zM146.8346233333333 126.9921066666666C146.8346233333333 150.8031266666667 126.9921066666667 174.6141466666667 99.2125833333333 174.6141466666667C75.4015633333333 174.6141466666667 51.5905433333333 154.77163 51.5905433333333 126.9921066666666S71.43306 79.3700666666666 99.2125833333333 79.3700666666666C123.0236033333333 79.3700666666666 146.8346233333333 99.2125833333334 146.8346233333333 126.9921066666666z" />
    <glyph glyph-name="logout"
      unicode="&#xE008;"
      horiz-adv-x="1190.551" d=" M595.2755 142.8661200000001C365.1023066666666 142.8661200000001 174.6141466666667 329.3857766666668 174.6141466666667 563.5274733333333C174.6141466666667 710.3620966666667 253.9842133333333 849.2597133333334 380.9763200000001 924.6612766666668L400.8188366666667 888.9447466666666C285.73224 821.48019 210.3306766666667 694.4880833333333 210.3306766666667 559.5589699999999C210.3306766666667 349.2282933333334 380.9763200000001 178.5826500000001 591.3069966666667 178.5826500000001C801.6376733333334 178.5826500000001 972.2833166666666 349.2282933333334 972.2833166666666 559.5589699999999C972.2833166666666 694.4880833333333 900.8502566666666 821.48019 781.7951566666666 888.9447466666666L801.6376733333333 924.6612766666668C928.6297799999998 849.2597133333334 1007.9998466666664 710.3620966666667 1007.9998466666664 563.5274733333333C1015.9368533333331 329.3857766666668 825.4486933333333 142.8661200000001 595.2755 142.8661200000001zM615.1180166666666 1067.5273966666666H575.4329833333333V706.3935933333333H615.1180166666666V1067.5273966666666z" />
    <glyph glyph-name="transfer"
      unicode="&#xE009;"
      horiz-adv-x="1190.551" d=" M366.0944325 452.4093799999999H80.3621925V738.1416199999999H366.0944325V452.4093799999999zM1080.4250324999998 708.377845H854.2203424999998V482.1731550000001H1080.4250324999998V708.377845M1110.1888075 738.14162V452.4093800000001H824.4565674999999V738.1416200000001H1110.1888075L1110.1888075 738.14162zM651.8266725 681.5904475L630.99203 660.7558049999999L681.5904475 610.1573874999999H452.4093799999999V580.3936124999999H681.5904475L630.99203 529.7951949999999L651.8266725 508.9605524999999L738.1416199999999 595.2755L651.8266725 681.5904475z" />
    <glyph glyph-name="board-new"
      unicode="&#xE00A;"
      horiz-adv-x="1190.551" d=" M1127.0549466666664 190.4881600000001H1000.0628399999998V63.4960533333335H960.3778066666666V190.4881600000001H833.3856999999999V230.1731933333334H960.3778066666666V357.1653H1000.0628399999998V230.1731933333334H1127.0549466666664V190.4881600000001zM317.4802666666667 1087.3699133333332H103.1810866666667V873.0707333333332H317.4802666666667V1087.3699133333332M357.1653 1127.0549466666666V833.3857H63.4960533333333V1127.0549466666666H357.1653L357.1653 1127.0549466666666zM702.42509 1087.3699133333332H488.1259099999999V873.0707333333332H702.42509V1087.3699133333332M742.1101233333333 1127.0549466666666V833.3857H448.4408766666666V1127.0549466666666H742.1101233333333L742.1101233333333 1127.0549466666666zM1087.3699133333332 1087.3699133333332H873.0707333333332V873.0707333333332H1087.3699133333332V1087.3699133333332M1127.0549466666664 1127.0549466666666V833.3857H833.3856999999999V1127.0549466666666H1127.0549466666664L1127.0549466666664 1127.0549466666666zM317.4802666666667 702.42509H103.1810866666667V488.1259099999999H317.4802666666667V702.42509M357.1653 742.1101233333333V448.4408766666666H63.4960533333333V742.1101233333331H357.1653L357.1653 742.1101233333333zM702.42509 702.42509H488.1259099999999V488.1259099999999H702.42509V702.42509M742.1101233333333 742.1101233333333V448.4408766666666H448.4408766666666V742.1101233333331H742.1101233333333L742.1101233333333 742.1101233333333zM1087.3699133333332 702.42509H873.0707333333332V488.1259099999999H1087.3699133333332V702.42509M1127.0549466666664 742.1101233333333V448.4408766666666H833.3856999999999V742.1101233333331H1127.0549466666664L1127.0549466666664 742.1101233333333zM317.4802666666667 317.4802666666667H103.1810866666667V103.1810866666667H317.4802666666667V317.4802666666667M357.1653 357.1653V63.4960533333335H63.4960533333333V357.1653H357.1653L357.1653 357.1653zM702.42509 317.4802666666667H488.1259099999999V103.1810866666667H702.42509V317.4802666666667M742.1101233333333 357.1653V63.4960533333335H448.4408766666666V357.1653H742.1101233333333L742.1101233333333 357.1653z" />
    <glyph glyph-name="board"
      unicode="&#xE00B;"
      horiz-adv-x="1190.551" d=" M317.4802666666667 1087.3699133333332H103.1810866666667V873.0707333333332H317.4802666666667V1087.3699133333332M357.1653 1127.0549466666666V833.3857H63.4960533333333V1127.0549466666666H357.1653L357.1653 1127.0549466666666zM702.42509 1087.3699133333332H488.1259099999999V873.0707333333332H702.42509V1087.3699133333332M742.1101233333333 1127.0549466666666V833.3857H448.4408766666666V1127.0549466666666H742.1101233333333L742.1101233333333 1127.0549466666666zM1087.3699133333332 1087.3699133333332H873.0707333333332V873.0707333333332H1087.3699133333332V1087.3699133333332M1127.0549466666664 1127.0549466666666V833.3857H833.3856999999999V1127.0549466666666H1127.0549466666664L1127.0549466666664 1127.0549466666666zM317.4802666666667 702.42509H103.1810866666667V488.1259099999999H317.4802666666667V702.42509M357.1653 742.1101233333333V448.4408766666666H63.4960533333333V742.1101233333331H357.1653L357.1653 742.1101233333333zM702.42509 702.42509H488.1259099999999V488.1259099999999H702.42509V702.42509M742.1101233333333 742.1101233333333V448.4408766666666H448.4408766666666V742.1101233333331H742.1101233333333L742.1101233333333 742.1101233333333zM1087.3699133333332 702.42509H873.0707333333332V488.1259099999999H1087.3699133333332V702.42509M1127.0549466666664 742.1101233333333V448.4408766666666H833.3856999999999V742.1101233333331H1127.0549466666664L1127.0549466666664 742.1101233333333zM317.4802666666667 317.4802666666667H103.1810866666667V103.1810866666667H317.4802666666667V317.4802666666667M357.1653 357.1653V63.4960533333335H63.4960533333333V357.1653H357.1653L357.1653 357.1653zM702.42509 317.4802666666667H488.1259099999999V103.1810866666667H702.42509V317.4802666666667M742.1101233333333 357.1653V63.4960533333335H448.4408766666666V357.1653H742.1101233333333L742.1101233333333 357.1653z" />
    <glyph glyph-name="eye"
      unicode="&#xE00C;"
      horiz-adv-x="1190.551" d=" M1071.4959 603.2125066666666C992.1258333333332 797.6691699999999 805.6061766666667 924.6612766666666 595.2755 924.6612766666666S198.4251666666667 797.6691699999999 119.0551 603.2125066666666L119.0551 595.2755L119.0551 587.3384933333333C198.4251666666667 392.8818299999999 384.9448233333333 265.8897233333335 595.2755 265.8897233333335S992.1258333333332 392.8818300000001 1071.4959 587.3384933333334L1071.4959 595.2755L1071.4959 603.2125066666666zM595.2755 841.3227066666666V801.6376733333333C519.8739366666666 801.6376733333333 460.3463866666666 742.1101233333333 460.3463866666666 666.7085599999999H420.6613533333333C420.6613533333333 761.95264 500.0314199999999 841.3227066666666 595.2755 841.3227066666666zM595.2755 305.5747566666667C404.7873399999999 305.5747566666667 234.1416966666667 416.69285 158.7401333333333 595.2755C206.3621733333333 710.3620966666667 301.6062533333333 801.6376733333333 412.7243466666667 849.2597133333334C369.07081 801.6376733333334 337.3227833333333 738.1416200000001 337.3227833333333 670.6770633333333C337.3227833333333 527.8109433333334 452.40938 412.7243466666667 595.2755 412.7243466666667S853.2282166666666 527.8109433333332 853.2282166666666 670.6770633333333C853.2282166666666 742.1101233333333 825.4486933333333 805.6061766666667 777.8266533333333 849.2597133333333C888.9447466666667 801.6376733333333 980.2203233333335 714.3305999999999 1031.8108666666665 595.2755C956.4093033333334 420.6613533333334 785.76366 305.5747566666667 595.2755 305.5747566666667z" />
    <glyph glyph-name="question"
      unicode="&#xE00D;"
      horiz-adv-x="1190.551" d=" M615.1180166666666 305.5747566666667H575.4329833333333V575.4329833333334H595.2755C702.42509 575.4329833333334 789.7321633333332 662.7400566666666 789.7321633333332 769.8896466666666S702.42509 964.34631 595.2755 964.34631S400.8188366666667 877.0392366666666 400.8188366666667 769.8896466666665H361.1338033333333C361.1338033333333 896.8817533333332 464.3148899999999 1004.0313433333332 595.2755 1004.0313433333332S829.4171966666665 900.8502566666666 829.4171966666665 769.8896466666665C829.4171966666665 646.8660433333333 734.1731166666666 547.6534599999999 615.1180166666666 539.7164533333332V305.5747566666667z M575.4329833333333 265.8897233333334H615.1180166666666V186.5196566666667H575.4329833333333V265.8897233333334z" />
    <glyph glyph-name="concentric"
      unicode="&#xE00E;"
      horiz-adv-x="1190.551" d=" M936.5667866666666 936.5667866666666C888.9447466666667 984.1888266666666 825.4486933333333 1011.96835 757.9841366666667 1011.96835C698.4565866666667 1011.96835 638.9290366666667 992.1258333333332 595.2755 952.4408C547.65346 992.1258333333332 492.0944133333334 1011.96835 432.5668633333334 1011.96835C365.1023066666667 1011.96835 301.6062533333334 984.1888266666666 253.9842133333334 936.5667866666666S178.5826500000001 825.4486933333333 178.5826500000001 757.9841366666667C178.5826500000001 698.4565866666667 198.4251666666667 638.9290366666667 238.1102000000001 595.2755C198.4251666666667 547.65346 178.5826500000001 492.0944133333333 178.5826500000001 432.5668633333333C178.5826500000001 365.1023066666667 206.3621733333334 301.6062533333333 253.9842133333334 253.9842133333333S365.1023066666667 178.5826500000001 432.5668633333334 178.5826500000001C492.0944133333334 178.5826500000001 551.6219633333334 198.4251666666667 595.2755 238.1102000000001C642.89754 198.4251666666667 698.4565866666667 178.5826500000001 757.9841366666667 178.5826500000001C825.4486933333333 178.5826500000001 888.9447466666667 206.3621733333333 936.5667866666666 253.9842133333333C1031.8108666666665 349.2282933333333 1035.77937 496.0629166666666 948.4722966666666 595.2755C1035.77937 694.4880833333333 1031.8108666666665 845.29121 936.5667866666666 936.5667866666666zM908.7872633333332 908.7872633333334C988.1573299999998 829.4171966666667 992.1258333333332 706.3935933333333 920.6927733333332 623.0550233333333C877.0392366666665 662.7400566666666 817.5116866666665 682.5825733333334 757.9841366666667 682.5825733333334C726.2361099999999 682.5825733333334 694.4880833333333 674.6455666666667 662.7400566666668 662.7400566666666C698.4565866666667 746.0786266666667 682.5825733333334 845.2912099999999 623.0550233333333 920.6927733333332C662.7400566666668 952.4407999999999 706.3935933333335 972.2833166666666 757.9841366666667 972.2833166666666C817.5116866666666 972.2833166666666 869.1022299999998 948.4722966666666 908.7872633333332 908.7872633333334zM595.2755 297.63775C531.7794466666667 377.0078166666667 531.7794466666667 488.12591 595.2755 563.5274733333333C658.7715533333334 488.12591 658.7715533333334 377.0078166666667 595.2755 297.63775zM595.2755 892.91325C658.7715533333334 813.5431833333332 658.7715533333334 702.42509 595.2755 627.0235266666667C531.7794466666667 702.42509 531.7794466666667 813.5431833333332 595.2755 892.91325zM892.91325 595.2755C853.2282166666666 563.5274733333333 809.5746799999998 547.65346 757.9841366666667 547.65346S662.7400566666668 563.5274733333333 623.0550233333333 595.2755C662.7400566666668 627.0235266666667 706.3935933333333 642.8975399999999 757.9841366666667 642.8975399999999S853.2282166666666 627.0235266666667 892.91325 595.2755zM281.7637366666666 908.7872633333334C321.44877 948.4722966666666 377.0078166666667 972.2833166666666 432.5668633333333 972.2833166666666C484.1574066666666 972.2833166666666 531.7794466666666 952.4408 567.4959766666666 920.6927733333334C507.9684266666666 849.2597133333334 492.0944133333333 750.0471299999999 527.8109433333333 662.7400566666666C500.0314199999999 674.6455666666667 464.3148899999999 682.5825733333334 432.5668633333333 682.5825733333334C373.0393133333333 682.5825733333334 317.4802666666666 662.7400566666666 269.8582266666666 623.0550233333333C198.4251666666667 706.3935933333333 202.39367 833.3857 281.7637366666666 908.7872633333334zM563.5274733333332 595.2755C523.8424399999999 563.5274733333333 480.1889033333333 547.65346 428.5983599999999 547.65346C380.97632 547.65346 333.3542799999999 563.5274733333333 293.6692466666666 595.2755C333.3542799999999 627.0235266666667 377.0078166666666 642.8975399999999 428.5983599999999 642.8975399999999C480.1889033333333 642.8975399999999 527.8109433333333 627.0235266666667 563.5274733333332 595.2755zM281.7637366666666 281.7637366666668C202.39367 361.1338033333334 198.4251666666667 484.1574066666668 269.8582266666666 567.4959766666667C313.5117633333333 527.8109433333334 373.0393133333334 507.9684266666667 432.5668633333333 507.9684266666667C464.3148899999999 507.9684266666667 496.0629166666665 515.9054333333333 527.8109433333333 527.8109433333334C492.0944133333333 444.4723733333333 507.9684266666666 345.2597900000001 567.4959766666666 269.8582266666667C527.8109433333333 238.1102000000001 484.1574066666666 218.2676833333334 432.5668633333333 218.2676833333334C373.0393133333334 218.2676833333334 321.44877 242.0787033333335 281.7637366666666 281.7637366666668zM908.7872633333332 281.7637366666668C869.1022299999998 242.0787033333335 813.5431833333332 218.2676833333334 757.9841366666665 218.2676833333334C706.3935933333331 218.2676833333334 658.7715533333331 238.1102000000001 623.0550233333332 269.8582266666667C682.5825733333331 341.2912866666667 698.4565866666666 440.50387 662.7400566666664 527.8109433333334C690.5195799999998 515.9054333333333 726.2361099999998 507.9684266666667 757.9841366666664 507.9684266666667C817.5116866666664 507.9684266666667 873.070733333333 527.8109433333334 920.692773333333 567.4959766666667C992.1258333333332 484.1574066666666 988.1573299999998 357.1653 908.7872633333332 281.7637366666668z" />
    <glyph glyph-name="keyboard"
      unicode="&#xE00F;"
      horiz-adv-x="1190.551" d=" M277.7952333333334 710.3620966666667C277.7952333333334 706.3935933333333 273.82673 702.42509 269.8582266666666 702.42509H214.29918C210.3306766666667 702.42509 206.3621733333333 706.3935933333333 206.3621733333333 710.3620966666667V761.95264C206.3621733333333 765.9211433333332 210.3306766666667 769.8896466666666 214.29918 769.8896466666666H265.8897233333334C269.8582266666666 769.8896466666666 273.82673 765.9211433333332 273.82673 761.95264V710.3620966666667zM349.2282933333334 567.4959766666667C349.2282933333334 563.5274733333333 345.25979 559.55897 341.2912866666667 559.55897H214.29918C210.3306766666667 559.55897 206.3621733333333 563.5274733333333 206.3621733333333 567.4959766666667V619.0865200000001C206.3621733333333 623.0550233333333 210.3306766666667 627.0235266666667 214.29918 627.0235266666667H337.3227833333333C341.2912866666666 627.0235266666667 345.25979 623.0550233333333 345.25979 619.0865200000001V567.4959766666667zM277.7952333333334 428.5983600000001C277.7952333333334 424.6298566666667 273.82673 420.6613533333334 269.8582266666666 420.6613533333334H214.29918C210.3306766666667 420.6613533333334 206.3621733333333 424.6298566666668 206.3621733333333 428.5983600000001V480.1889033333334C206.3621733333333 484.1574066666668 210.3306766666667 488.12591 214.29918 488.12591H265.8897233333334C269.8582266666666 488.12591 273.82673 484.1574066666666 273.82673 480.1889033333334V428.5983600000001zM420.6613533333333 710.3620966666667C420.6613533333333 706.3935933333333 416.69285 702.42509 412.7243466666667 702.42509H357.1653C353.1967966666667 702.42509 349.2282933333334 706.3935933333333 349.2282933333334 710.3620966666667V761.95264C349.2282933333334 765.9211433333332 353.1967966666667 769.8896466666666 357.1653 769.8896466666666H408.7558433333333C412.7243466666667 769.8896466666666 416.69285 765.9211433333332 416.69285 761.95264V710.3620966666667zM841.3227066666666 428.5983600000001C841.3227066666666 424.6298566666667 837.3542033333332 420.6613533333334 833.3856999999999 420.6613533333334H357.1653C353.1967966666667 420.6613533333334 349.2282933333334 424.6298566666668 349.2282933333334 428.5983600000001V480.1889033333334C349.2282933333334 484.1574066666668 353.1967966666667 488.12591 357.1653 488.12591H833.3856999999999C837.3542033333333 488.12591 841.3227066666666 484.1574066666666 841.3227066666666 480.1889033333334V428.5983600000001zM488.12591 567.4959766666667C488.12591 563.5274733333333 484.1574066666666 559.55897 480.1889033333334 559.55897H428.59836C424.6298566666667 559.55897 420.6613533333334 563.5274733333333 420.6613533333334 567.4959766666667V619.0865200000001C420.6613533333334 623.0550233333333 424.6298566666667 627.0235266666667 428.59836 627.0235266666667H480.1889033333334C484.1574066666666 627.0235266666667 488.12591 623.0550233333333 488.12591 619.0865200000001V567.4959766666667zM559.5589699999999 710.3620966666667C559.5589699999999 706.3935933333333 555.5904666666667 702.42509 551.6219633333333 702.42509H500.0314199999999C496.0629166666666 702.42509 492.0944133333333 706.3935933333333 492.0944133333333 710.3620966666667V761.95264C492.0944133333333 765.9211433333332 496.0629166666666 769.8896466666666 500.0314199999999 769.8896466666666H551.6219633333333C555.5904666666667 769.8896466666666 559.5589699999999 765.9211433333332 559.5589699999999 761.95264V710.3620966666667zM630.99203 567.4959766666667C630.99203 563.5274733333333 627.0235266666666 559.55897 623.0550233333333 559.55897H571.46448C567.4959766666666 559.55897 563.5274733333333 563.5274733333333 563.5274733333333 567.4959766666667V619.0865200000001C563.5274733333333 623.0550233333333 567.4959766666666 627.0235266666667 571.46448 627.0235266666667H623.0550233333333C627.0235266666666 627.0235266666667 630.99203 623.0550233333333 630.99203 619.0865200000001V567.4959766666667zM702.42509 710.3620966666667C702.42509 706.3935933333333 698.4565866666666 702.42509 694.4880833333333 702.42509H642.8975399999999C638.9290366666665 702.42509 634.9605333333333 706.3935933333333 634.9605333333333 710.3620966666667V761.95264C634.9605333333333 765.9211433333332 638.9290366666667 769.8896466666666 642.8975399999999 769.8896466666666H694.4880833333333C698.4565866666667 769.8896466666666 702.42509 765.9211433333332 702.42509 761.95264V710.3620966666667zM769.8896466666665 567.4959766666667C769.8896466666665 563.5274733333333 765.9211433333331 559.55897 761.9526399999999 559.55897H710.3620966666665C706.3935933333331 559.55897 702.42509 563.5274733333333 702.42509 567.4959766666667V619.0865200000001C702.42509 623.0550233333333 706.3935933333333 627.0235266666667 710.3620966666665 627.0235266666667H761.9526399999999C765.9211433333332 627.0235266666667 769.8896466666665 623.0550233333333 769.8896466666665 619.0865200000001V567.4959766666667zM841.3227066666666 710.3620966666667C841.3227066666666 706.3935933333333 837.3542033333332 702.42509 833.3856999999999 702.42509H781.7951566666666C777.8266533333332 702.42509 773.8581499999999 706.3935933333333 773.8581499999999 710.3620966666667V761.95264C773.8581499999999 765.9211433333332 777.8266533333333 769.8896466666666 781.7951566666666 769.8896466666666H833.3856999999999C837.3542033333333 769.8896466666666 841.3227066666666 765.9211433333332 841.3227066666666 761.95264V710.3620966666667zM984.1888266666666 567.4959766666667C984.1888266666666 563.5274733333333 980.2203233333332 559.55897 976.25182 559.55897H853.2282166666666C849.2597133333333 559.55897 845.29121 563.5274733333333 845.29121 567.4959766666667V619.0865200000001C845.29121 623.0550233333333 849.2597133333334 627.0235266666667 853.2282166666666 627.0235266666667H912.7557666666665V757.9841366666667C912.7557666666665 761.95264 916.72427 765.9211433333332 920.6927733333332 765.9211433333332H972.2833166666666C976.25182 765.9211433333332 980.2203233333332 761.95264 980.2203233333332 757.9841366666667V567.4959766666667zM984.1888266666666 428.5983600000001C984.1888266666666 424.6298566666667 980.2203233333332 420.6613533333334 976.25182 420.6613533333334H924.6612766666666C920.6927733333332 420.6613533333334 916.72427 424.6298566666668 916.72427 428.5983600000001V480.1889033333334C916.72427 484.1574066666668 920.6927733333334 488.12591 924.6612766666666 488.12591H976.25182C980.2203233333335 488.12591 984.1888266666666 484.1574066666666 984.1888266666666 480.1889033333334V428.5983600000001zM1055.6218866666666 841.3227066666666V349.2282933333333H134.9291133333333V841.3227066666666H1055.6218866666666M1095.30692 881.00774H1055.6218866666666H134.9291133333333H95.24408V841.3227066666666V349.2282933333333V309.5432599999999H134.9291133333333H1051.6533833333333H1091.3384166666665V349.2282933333333V841.3227066666666V881.00774L1095.30692 881.00774z" />
    <glyph glyph-name="menu"
      unicode="&#xE010;"
      horiz-adv-x="1190.551" d=" M948.4722966666664 575.4329833333334H242.0787033333333V615.1180166666667H944.503793333333V575.4329833333334zM948.4722966666664 881.00774H242.0787033333333V841.3227066666666H944.503793333333V881.00774zM948.4722966666664 349.2282933333334H242.0787033333333V309.5432600000001H944.503793333333V349.2282933333334z" />
    <glyph glyph-name="move"
      unicode="&#xE011;"
      horiz-adv-x="1190.551" d=" M964.34631 726.23611L936.5667866666666 698.4565866666667L1019.9053566666666 615.1180166666667L615.1180166666666 615.1180166666667L615.1180166666666 1019.9053566666666L698.4565866666667 936.5667866666666L726.2361099999999 964.34631L595.2755 1095.30692L464.3148899999999 964.34631L492.0944133333333 936.5667866666666L575.4329833333333 1019.9053566666666L575.4329833333333 615.1180166666667L170.6456433333333 615.1180166666667L253.9842133333333 698.4565866666667L226.20469 726.23611L95.24408 595.2755L226.20469 464.31489L253.9842133333333 492.0944133333333L170.6456433333333 575.4329833333334L575.4329833333333 575.4329833333334L575.4329833333333 170.6456433333334L492.0944133333333 253.9842133333333L464.3148899999999 226.2046900000001L595.2755 95.2440799999999L726.2361099999999 226.2046900000001L698.4565866666667 253.9842133333333L615.1180166666666 170.6456433333334L615.1180166666666 575.4329833333334L1019.9053566666666 575.4329833333334L936.5667866666666 492.0944133333333L964.34631 464.31489L1095.30692 595.2755z" />
    <glyph glyph-name="cut"
      unicode="&#xE012;"
      horiz-adv-x="1190.551" d=" M638.9290366666667 595.2755C638.9290366666667 603.2125066666666 638.9290366666667 607.18101 634.9605333333333 615.1180166666667L1123.0864433333334 928.62978L1103.2439266666665 960.3778066666666L615.1180166666666 646.8660433333333C603.2125066666666 658.7715533333334 583.3699899999999 666.70856 563.5274733333332 666.70856C543.6849566666666 666.70856 527.8109433333333 658.7715533333334 515.9054333333332 646.8660433333333L341.2912866666666 757.9841366666667C353.1967966666667 781.7951566666666 357.1653 801.6376733333333 357.1653 825.4486933333333C357.1653 904.81876 289.7007433333333 972.2833166666666 210.3306766666667 972.2833166666666S63.4960533333333 904.8187599999998 63.4960533333333 825.4486933333333S130.96061 678.6140700000001 210.3306766666667 678.6140700000001C253.9842133333333 678.6140700000001 293.6692466666667 698.4565866666667 321.44877 730.2046133333333L496.0629166666667 619.0865200000001C492.0944133333334 611.1495133333334 492.0944133333334 603.2125066666667 492.0944133333334 595.2755000000001C492.0944133333334 587.3384933333334 492.0944133333334 579.4014866666668 496.0629166666667 571.4644800000001L321.44877 460.3463866666667C293.6692466666667 492.0944133333334 253.9842133333334 511.9369300000001 210.3306766666667 511.9369300000001C130.9606100000001 511.9369300000001 63.4960533333334 444.4723733333334 63.4960533333334 365.1023066666668S130.9606100000001 218.2676833333335 210.3306766666667 218.2676833333335S357.1653 285.73224 357.1653 365.1023066666667C357.1653 388.9133266666667 353.1967966666667 408.7558433333334 341.2912866666666 428.5983600000001L515.9054333333332 539.7164533333333C527.8109433333333 527.8109433333334 543.6849566666666 519.8739366666667 563.5274733333332 519.8739366666667C583.3699899999999 519.8739366666667 599.2440033333332 527.8109433333334 611.1495133333332 539.7164533333333L1103.2439266666665 226.2046900000002L1123.0864433333331 257.9527166666668L634.9605333333333 575.4329833333334C638.9290366666667 583.3699899999999 638.9290366666667 587.3384933333333 638.9290366666667 595.2755zM309.54326 781.7951566666666C305.5747566666667 769.8896466666665 297.63775 757.9841366666667 289.7007433333333 750.0471299999999C269.8582266666666 730.2046133333333 242.0787033333333 714.3305999999999 210.3306766666667 714.3305999999999C150.8031266666667 714.3305999999999 103.1810866666667 761.9526399999999 103.1810866666667 821.48019S150.8031266666667 928.62978 210.3306766666667 928.62978S317.4802666666667 881.00774 317.4802666666667 825.4486933333333C317.4802666666667 809.57468 313.5117633333333 797.6691699999999 309.54326 781.7951566666666zM210.3306766666667 257.9527166666667C150.8031266666667 257.9527166666667 103.1810866666667 305.5747566666667 103.1810866666667 365.1023066666667S150.8031266666667 472.2518966666667 210.3306766666667 472.2518966666667C242.0787033333333 472.2518966666667 269.8582266666666 460.3463866666666 289.7007433333333 436.5353666666666C297.63775 428.5983600000001 305.5747566666667 416.69285 309.54326 404.78734C313.5117633333333 392.8818299999999 317.4802666666667 377.0078166666667 317.4802666666667 365.1023066666667C317.4802666666667 309.5432600000001 269.8582266666666 257.9527166666667 210.3306766666667 257.9527166666667z" />
    <glyph glyph-name="paste"
      unicode="&#xE013;"
      horiz-adv-x="1190.551" d=" M992.1258333333332 817.5116866666666H257.9527166666666V857.1967199999999H992.1258333333332V817.5116866666666zM194.4566633333333 837.3542033333333C194.4566633333333 861.1652233333332 174.6141466666667 884.9762433333333 146.8346233333333 884.9762433333333S103.1810866666667 861.1652233333332 103.1810866666667 837.3542033333333C103.1810866666667 813.5431833333332 123.0236033333333 789.7321633333333 150.8031266666667 789.7321633333333S194.4566633333333 809.57468 194.4566633333333 837.3542033333333zM1087.3699133333332 567.4959766666667H531.7794466666666V527.8109433333334H1087.3699133333332V567.4959766666667zM472.2518966666667 547.65346C472.2518966666667 571.46448 452.40938 595.2755 424.6298566666667 595.2755C400.8188366666667 595.2755 377.0078166666667 575.4329833333334 377.0078166666667 547.65346S396.8503333333334 500.03142 424.6298566666667 500.03142C452.40938 500.03142 472.2518966666667 519.8739366666667 472.2518966666667 547.65346zM861.1652233333332 373.0393133333334H535.74795V333.3542799999999H861.1652233333332V373.0393133333334zM472.2518966666667 353.1967966666666C472.2518966666667 377.0078166666667 452.40938 400.8188366666666 424.6298566666667 400.8188366666666C400.8188366666667 400.8188366666666 377.0078166666667 380.9763199999999 377.0078166666667 353.1967966666666C377.0078166666667 329.3857766666665 396.8503333333334 305.5747566666667 424.6298566666667 305.5747566666667C452.40938 309.5432600000001 472.2518966666667 329.3857766666668 472.2518966666667 353.1967966666666zM301.6062533333333 547.65346L234.1416966666667 615.1180166666667V567.4959766666667H166.67714V730.2046133333333H126.9921066666667V527.8109433333334H230.1731933333334V480.1889033333334L301.6062533333333 547.65346z" />
    <glyph glyph-name="share"
      unicode="&#xE014;"
      horiz-adv-x="1190.551" d=" M366.243251375 452.2307973499999H80.213373625V738.290438875H366.2134876V452.2307973499999zM652.3028929 681.263045975L631.2599039749999 660.1902932749999L681.3225735249999 610.187151275H452.2903248999999V580.423376275H681.3225735249999L631.2599039749999 530.360706725L652.3028929 509.3177178L738.290438875 595.305263775L652.3028929 681.263045975zM967.3226875 750.70193305C920.83167095 750.70193305 883.1507318 712.9912301249999 883.1507318 666.500213575C883.1507318 620.0091970249999 920.83167095 582.3580216500001 967.3226875 582.3580216500001C1013.8137040499998 582.3580216500001 1051.4946432000002 620.0389607999999 1051.4946432000002 666.500213575C1051.4946432000002 712.9912301249999 1013.8137040499998 750.70193305 967.3226875 750.70193305zM1060.6618859 572.2383381499999C1036.6722832500002 548.4570819249999 1003.69402055 533.7537770749999 967.3226875 533.7537770749999S898.002855525 548.4570819249999 873.9834891 572.2383381499999C844.04113145 527.1759827999999 825.022079225 470.773629175 825.022079225 439.938358275H1109.593532C1109.593532 470.7438653999999 1090.60424355 527.1759827999999 1060.6618859 572.2383381499999z" />
    <glyph glyph-name="shared"
      unicode="&#xE015;"
      horiz-adv-x="1190.551" d=" M418.53820405 759.6013017749999C418.53820405 713.1102852249999 380.827501125 675.45910985 334.36624835 675.45910985C287.8752318 675.45910985 250.19429265 713.140049 250.19429265 759.601301775C250.19429265 806.092318325 287.8752318 843.80302125 334.36624835 843.80302125C380.827501125 843.832785025 418.53820405 806.1220821 418.53820405 759.6013017749999zM427.675682975 665.3394263499999C403.686080325 641.558170125 370.707817625 626.854865275 334.336484575 626.854865275S265.0166526 641.558170125 240.9972861750001 665.3394263499999C211.054928525 620.277071 192.0358763000001 563.8747173749999 192.0358763000001 533.039446475H476.6073290750001C476.63709285 563.8747173749999 457.618040625 620.306834775 427.675682975 665.3394263499999zM856.214515425 842.4934151499999C809.7234988749999 842.4934151499999 772.0425597249999 804.782712225 772.0425597249999 758.2916956749999C772.0425597249999 711.800679125 809.7234988749999 674.1495037499999 856.214515425 674.1495037499999C902.705531975 674.1495037499999 940.386471125 711.8304428999999 940.386471125 758.2916956749999C940.386471125 804.782712225 902.6757682 842.4934151499999 856.214515425 842.4934151499999zM949.52395005 664.02982025C925.5343474 640.248564025 892.5560846999999 625.545259175 856.1847516500001 625.545259175S786.864919675 640.248564025 762.8455532500001 664.02982025C732.9031956 618.9674649 713.884143375 562.5651112749999 713.884143375 531.7298403749999H998.4555961500002C998.4853599249998 562.5353475 979.4663077 618.9674649 949.52395005 664.02982025zM595.2755 657.511553525C548.7844834499999 657.511553525 511.1035443 619.8008506 511.1035443 573.30983405C511.1035443 526.8188174999999 548.78448345 489.167642125 595.2755 489.167642125C641.76651655 489.167642125 679.4474557 526.848581275 679.4474557 573.30983405C679.4474557 619.8008506 641.76651655 657.511553525 595.2755 657.511553525zM688.6146984 479.0479586249999C664.6250957499999 455.2667024 631.6468330499999 440.56339755 595.2755 440.56339755S525.9556680249999 455.2667024 501.9363016 479.0479586249999C471.99394395 433.9856032749999 452.974891725 377.58324965 452.974891725 346.7479787499999H737.5463445C737.5463445 377.58324965 718.5570560499999 433.9856032749999 688.6146984 479.0479586249999z" />
    <glyph glyph-name="arrow_small_left"
      unicode="&#xE016;"
      horiz-adv-x="1190.551" d=" M138.9373017 595.1564448999999L317.5199517 773.7390948999998L345.25979 745.9992565999999L214.29918 615.0386465999999H1079.4725917V575.3932982999999H218.3470534L345.3788451 444.4326882999998L317.6390068 416.6928499999999L138.9373017 595.1564448999999z" />
    <glyph glyph-name="history"
      unicode="&#xE017;"
      horiz-adv-x="1190.551" d=" M1054.2924380499999 567.35707905C1054.2924380499999 424.3719039500001 998.6341788 289.9884598250001 897.5266351249999 188.8809161500001C793.1748399749999 84.558884775 656.082892325 32.3829871999999 519.050472225 32.3829871999999C381.98828835 32.3829871999999 244.95586825 84.529121 140.6040731 188.8809161500001L161.647062025 209.9239050750001C358.7130163 12.8877145750002 679.38792815 12.8877145750002 876.4836462 209.9239050750001C971.936072625 305.3763315000001 1024.52866305 432.3485956500001 1024.52866305 567.35707905C1024.52866305 702.3953262250001 971.9360726249998 829.3080628250001 876.4836461999998 924.76048925C688.406351975 1112.778255925 388.149389775 1120.9632940499998 189.7738294 950.1787531H359.3678193500001V920.4149780999998H136.25856195V1143.5242355H166.02233695V968.7811124749998C375.9760058000001 1153.6141552249999 697.0080829499999 1146.32203035 897.5563989 945.8332419499998C998.6341788 844.75546205 1054.2924380499999 710.3422541499999 1054.2924380499999 567.35707905zM605.990459 855.023964425H576.226684V475.3870143H349.575537375V445.6232393H605.990459V855.023964425z" />
    <glyph glyph-name="keylock"
      unicode="&#xE018;"
      horiz-adv-x="1190.551" d=" M741.326343925 652.9576959499999C741.326343925 710.0446163999999 694.8353273749999 756.5058691749998 637.7484069249999 756.5058691749998S534.1704699249999 710.0446163999999 534.1704699249999 652.9576959499999V594.829043375H480.0896907499999V413.8355276H795.4666506499999V594.829043375H741.3858714749999V652.9576959499999zM711.5625689249999 594.829043375H563.9044811499999V652.9576959499999C563.9044811499999 693.644776375 597.031562725 726.7420941749999 637.7186431499999 726.7420941749999C678.4354873499999 726.7420941749999 711.53280515 693.644776375 711.53280515 652.9576959499999V594.829043375zM894.3419111999999 989.794337625H381.15490265C323.7108169 989.794337625 276.98169015 943.065210875 276.98169015 885.6211251249999V372.374589025C276.98169015 314.930503275 323.7108169 268.2013765249999 381.15490265 268.2013765249999H894.3419112C951.78599695 268.2013765249999 998.5151237 314.930503275 998.5151237 372.374589025V885.6211251249999C998.5151237 943.065210875 951.78599695 989.794337625 894.3419111999999 989.794337625zM968.7513487 372.374589025C968.7513487 331.3303432999999 935.386156925 297.9651515249999 894.3419112 297.9651515249999H381.15490265C340.1404207 297.9651515249999 306.74546515 331.3303432999999 306.74546515 372.374589025V885.6211251249999C306.74546515 926.635607075 340.1404207 960.030562625 381.15490265 960.030562625H894.3419112C935.386156925 960.030562625 968.7513487 926.635607075 968.7513487 885.6211251249999V372.374589025zM949.04772965 1036.344881725H326.4490842C269.00499845 1036.344881725 222.2758717 989.615754975 222.2758717 932.171669225V223.3473675999999C222.2758717 165.90328185 269.00499845 119.1741551 326.4490842 119.1741551H949.04772965C1006.4918154 119.1741551 1053.22094215 165.90328185 1053.22094215 223.3473675999999V932.171669225C1053.2209421500002 989.615754975 1006.4620516249998 1036.344881725 949.04772965 1036.344881725zM1023.45716715 223.3473675999999C1023.45716715 182.303121875 990.091975375 148.9379300999999 949.04772965 148.9379300999999H326.4490842C285.43460225 148.9379300999999 252.0396467 182.303121875 252.0396467 223.3473675999999V932.171669225C252.0396467 973.186151175 285.43460225 1006.581106725 326.4490842 1006.581106725H949.04772965C990.091975375 1006.581106725 1023.4571671499998 973.186151175 1023.4571671499998 932.171669225V223.3473675999999z" />
    <glyph glyph-name="text"
      unicode="&#xE019;"
      horiz-adv-x="1190.551" d=" M652.987459725 259.12342515H750.1661851V237.8423260249999H434.25347725V259.12342515H536.5813357V932.4395431999998H468.77945625C374.5771083749999 932.4395431999998 341.15238905 854.488216475 315.8531803 749.1839805249999L310.79333855 727.9028814H292.5183807L301.655859625 952.7086739749998H881.8411257L898.0326193 727.9028814H881.8411257L874.727583475 750.1661850999999C835.2608178249999 872.7036467749999 806.89594025 932.4395431999998 703.67516855 932.4395431999998H653.0172234999999V259.12342515z" />
    <glyph glyph-name="pilcrow"
      unicode="&#xE01A;"
      horiz-adv-x="1190.551" d=" M559.648261325 1006.581106725C441.3967832500001 1006.581106725 345.5276639750001 910.682223675 345.5276639750001 792.3712180499999C345.5276639750001 674.0899761999999 441.4265470250001 578.2208569249999 559.648261325 578.2208569249999V183.9698932749999H589.412036325V976.817331725H743.8562648V183.9401295H773.6200398V976.817331725H845.023336025V1006.581106725H559.648261325z" />
    <glyph glyph-name="spacer"
      unicode="&#xE01B;"
      horiz-adv-x="1190.551" d=" M1083.907394175 1036.285354175H192.6311518V1066.049129175H1083.907394175V1036.285354175zM1083.907394175 450.3854433H192.6311518V420.6216683H1083.907394175V450.3854433zM1083.907394175 302.310662675H192.6311518V272.546887675H1083.907394175V302.310662675zM1083.907394175 154.2656458249999H192.6311518V124.501870825H1083.907394175V154.2656458249999zM302.69759175 888.2403373249999V918.004112325H192.6311518V665.964465625L142.56848225 716.027135175L121.525493325 694.98414625L207.5130393 608.996600275L293.4708215 694.98414625L272.427832575 716.027135175L222.3651630249999 665.964465625V888.240337325H302.69759175z" />
    <glyph glyph-name="arrow_large_left"
      unicode="&#xE01C;"
      horiz-adv-x="1190.551" d=" M842.225541175 1099.622667375L863.2685301 1078.5796784499998L379.934587875 595.2755L863.2685301 111.9713215500001L842.225541175 90.9283326249999L337.8486100250001 595.2755L842.225541175 1099.622667375z" />
    <glyph glyph-name="arrow_large_right"
      unicode="&#xE01D;"
      horiz-adv-x="1190.551" d=" M358.89159895 90.9283326249999L337.848610025 111.9713215500001L821.18255225 595.2755L337.8486100250001 1078.5796784499998L358.8915989500001 1099.622667375L863.2685301 595.2755L358.89159895 90.9283326249999z" />
    <glyph glyph-name="info"
      unicode="&#xE01E;"
      horiz-adv-x="1190.551" d=" M564.529520425 665.9347018499999H626.0810071249999V325.6156984999999H564.529520425V665.9347018499998z M595.2755 1102.6288086499999C315.109085925 1102.6288086499999 87.92219135 875.5014416249999 87.92219135 595.2755C87.92219135 315.07932215 315.109085925 87.8924275750001 595.2755 87.8924275750001C875.47167785 87.8924275750001 1102.6585724249999 315.0793221500001 1102.6585724249999 595.2755000000001C1102.6585724249999 875.5014416249999 875.47167785 1102.6288086499999 595.2755 1102.6288086499999zM524.050786425 877.0491579249999H666.52997735V755.46413705H524.050786425V877.0491579249999zM757.994057925 285.1369644999999H432.58670585V325.6156984999999H524.0805502V665.9347018499999H442.2896965V706.3836720749998H666.559741125V325.6156985H757.994057925V285.1369644999999z" />
    <glyph glyph-name="licklogo"
      unicode="&#xE01F;"
      horiz-adv-x="1190.551" d=" M1045.0359040249998 963.6022156249998C1042.8036209 962.97717635 817.581135475 904.0151380749998 595.2755 904.0151380749998C373.148447175 904.0151380749998 147.7473791 962.97717635 145.515095975 963.5724518499998L126.823445275 968.543002275V949.2263123C126.823445275 774.3046066249999 222.365163025 616.5863628999999 376.63080885 535.09314695V445.1470189000001C376.63080885 324.573966375 474.73221125 226.50232775 595.3052637750001 226.50232775S813.9797187 324.573966375 813.9797187 445.1470188999999V535.0931469499999C968.2453645250002 616.5565991249998 1063.7870822749999 774.2748428499999 1063.7870822749999 949.2263123V968.57276605L1045.0359040249998 963.6022156249998zM799.068067425 592.2991225C790.853265525 592.2991225 784.186179925 585.6320368999999 784.186179925 577.4172349999999V445.117255125C784.186179925 340.9738064 699.4487124999999 256.2363389749999 595.2755 256.2363389749999C491.1022875 256.2363389749999 406.364820075 340.9738064 406.364820075 445.117255125V567.148732625C406.364820075 644.14761855 469.0175664499999 706.8003649249999 546.016452375 706.8003649249999C574.5599126 706.8003649249999 601.9723493749999 697.633122225 625.1880938749999 681.53091995C597.7756571 651.7076174 580.8103053499999 612.12179665 580.45314005 568.6071575999999H580.3936125V372.553171675H610.1573875V567.148732625C610.1573875 644.14761855 672.810133875 706.8003649249999 749.8090198 706.8003649249999C807.9971999249999 706.8003649249999 860.143333725 669.6551737249999 880.2934094 615.6934496499999C859.8456959749999 598.31140505 837.73121115 582.5961318499999 813.949954925 568.90479535V577.4172349999999C813.949954925 585.6320368999999 807.282869325 592.2991225 799.068067425 592.2991225zM903.777027875 637.1828952C876.5729375249999 696.5913900999999 816.3608206999999 736.5641399250001 749.8090198 736.5641399250001C711.383986275 736.5641399250001 676.024621575 723.5573702500001 647.5704526750001 701.9191058250001C618.31266185 723.9740631 582.923533375 736.5641399250001 546.0164523750001 736.5641399250001C453.1832381500001 736.5641399250001 377.6427772000001 661.499899375 376.6903364000001 568.90479535C245.8487815 644.02856345 163.40312475 779.15610195 156.97414935 930.088204975C216.680282 915.83135675 406.98985935 874.251363075 595.2755 874.251363075C783.590904425 874.251363075 973.8707179999998 915.83135675 1033.5768506499999 930.0882049749998C1028.7551191 817.5513716999999 981.6092995 713.8543796 903.777027875 637.1828952z" />
    <glyph glyph-name="filter"
      unicode="&#xE020;"
      horiz-adv-x="1190.551" d=" M929.314346825 952.708673975H595.2755H261.236653175L494.465594075 654.058955625V402.5252931L548.4868457 348.53380525L572.7443223250001 324.2763286249999L642.0641543 254.95649665C671.7684017500001 225.2820129749998 696.0854059250001 235.3124051499999 696.0854059250001 277.368619225V324.2763286249999V326.121682675V402.5252931V654.058955625L929.314346825 952.708673975z" />
    <glyph glyph-name="star-outline"
      unicode="&#xE021;"
      horiz-adv-x="1190.551" d=" M254.093347175 73.486760475L319.276014425 453.3618207999999L43.246765075 722.3668192499999L424.6695417 777.8167320749999L595.2755 1123.4932149249998L765.82193075 777.8464958499999L1147.27447115 722.3965830249999L871.274985575 453.3618207999999L936.3981252749998 73.486760475L595.2755 252.8730324L254.093347175 73.486760475zM107.238881325 701.5917043L351.27207255 463.7493782749999L293.619640375 127.894941175L595.2755 286.476334375L896.90159585 127.92470495L839.3086912250001 463.77914205L1083.34188245 701.6214680749999L746.05878415 750.6424055L595.2755 1056.2270834249998L444.4326883 750.58287795L107.238881325 701.5917043z" />
    <glyph glyph-name="star-fill"
      unicode="&#xE022;"
      horiz-adv-x="1190.551" d=" M595.2755 269.6598015L273.856493775 100.6908508250001L335.2591616000001 458.54071765L75.2428232 711.979261775L434.551115 764.2146869L595.2755 1089.8601491749998L755.970121225 764.2444506749999L1115.3081768 712.0090255499999L855.2918384 458.5704814249999L916.66474245 100.7206146000001L595.2755 269.6598015z" />
    <glyph glyph-name="check_thick"
      unicode="&#xE023;"
      horiz-adv-x="1190.551" d=" M407.853008825 239.83649895L170.8440685 476.75614795L269.987203025 575.8695187L407.853008825 438.0037129L920.59356075 950.744264825L1019.76645905 851.6308940749999z" />
    <glyph glyph-name="lightbulb"
      unicode="&#xE024;"
      horiz-adv-x="1190.551" d=" M795.34759555 191.4108370249999C782.13247945 191.4108370249999 769.6912215000001 196.5599701 760.3156323750001 205.9057954499999C750.94004325 215.2813845749998 745.7611464 227.7524063 745.7611464 241.0270499499999C745.7611464 254.2421660499999 750.94004325 266.6834239999999 760.3156323750001 276.0590131249999L914.551514425 430.32465895C933.3324564500002 449.0460734249999 965.923790075 449.01630965 984.615440775 430.413950275C1003.961894525 411.0674965249999 1003.93213075 379.577422575 984.5856770000001 360.2309688249999L830.439086275 205.9355592249999C821.0039696 196.530206325 808.56271165 191.4108370249999 795.34759555 191.4108370249999zM949.613241375 415.055842375C944.315289425 415.055842375 939.314975225 413.0021419 935.564739575 409.25190625L781.3288575249999 254.986260425C777.5488581 251.2360247749999 775.4951576249998 246.26547435 775.4951576249998 240.9675224S777.5488580999998 230.6990200249999 781.3288575249999 226.9190206000001C788.8888563749999 219.3590217500001 801.8956260499999 219.4483130750001 809.39609735 226.948784375L963.5129243 381.2144301999999C971.281269575 388.982775475 971.31103335 401.5728523 963.57245185 409.2816700250001C959.88174375 413.0021419 954.9111933249998 415.055842375 949.613241375 415.055842375z M893.44899795 93.249907075L893.44899795 93.249907075C880.23388185 93.249907075 867.7926239000001 98.39904015 858.44679855 107.7151017250001C839.130108575 127.0317917 839.130108575 158.5218656499999 858.44679855 177.838555625L1012.7124443750002 332.10420145C1031.4040950750002 350.8553797 1064.0549562500003 350.885143475 1082.776370725 332.163729C1092.1221960750001 322.8774312 1097.3010929250001 310.4361732499999 1097.3010929250001 297.191293375C1097.3308567 283.916649725 1092.1519598500001 271.445628 1082.776370725 262.0402750999999L928.5107249000002 107.7448654999998C919.194663325 98.428803925 906.7236416 93.249907075 893.44899795 93.249907075zM1047.74440755 316.8949124249999C1042.476219375 316.8949124249999 1037.50566895 314.8412119499999 1033.7554333 311.0909762999999L879.4600237 156.7955666999999C871.7214421999998 149.0569852000001 871.7214421999998 136.466908375 879.4600237 128.75809065C886.9604949999999 121.2873831250001 899.9970284499999 121.3171468999999 907.4379722 128.8176182L1061.703618025 283.1130278000001C1065.453853675 286.8632634500001 1067.50755415 291.8635776500002 1067.50755415 297.1912933750001C1067.50755415 302.4594815500001 1065.453853675 307.4002682000001 1061.7333818 311.1207400750001C1057.98314615 314.8412119499999 1053.0423595 316.8949124249999 1047.74440755 316.8949124249999z M697.0080829499999 275.07680855C693.2578472999999 275.07680855 689.5373754249999 276.475705975 686.6205254749999 279.3032645999999C624.1165979749999 339.932074275 541.9388151999999 373.327029825 455.2071748499999 373.3567936C358.4749061 373.3567936 267.606101025 411.0079689750001 199.2089460749999 479.37536015C130.8415548999999 547.71298755 93.1903795249999 638.6115564 93.1903795249999 735.2842976C93.1903795249999 831.986802575 130.8415549 922.85560765 199.2089460749999 991.222998825C267.6358647999999 1059.7094451 358.5641974249999 1097.360620475 455.2369386249999 1097.360620475C551.9394435999999 1097.360620475 642.83801245 1059.7094451 711.2054036249998 991.342053925C779.5727947999999 922.9151352 817.2239701749999 831.986802575 817.1942063999999 735.3438251499999C817.2239701749999 648.641948575 850.6784532749998 566.4641657999999 911.3667904999998 503.9900020749999C917.02190775 498.156302175 916.9623801999998 488.8402405999999 911.217971625 483.095832025L707.5146955249999 279.452083475C704.62760935 276.535233525 700.8178461499999 275.07680855 697.0080829499999 275.07680855zM455.236938625 1067.5670817C366.51112535 1067.5670817 283.083264025 1033.011338925 220.341226325 970.269301225C157.539661075 907.4082084249998 122.9839183 823.9803471 122.9839183 735.254533825C122.9839183 646.52872055 157.539661075 563.100859225 220.281698775 500.3885852999999C283.05350025 437.676311375 366.4515978 403.090804825 455.117883525 403.090804825C544.885428925 403.0610410499999 630.069352975 370.32088855 696.680681425 310.6445196749999L880.0255354249999 493.9298461249999C820.23011145 560.5709383499999 787.48995895 645.725098625 787.460195175 735.3140613749999C787.4899589500001 824.0101108749999 752.9639799500001 907.4677359749998 690.192178475 970.269301225C627.4203769999999 1033.0411027 543.992515675 1067.5670817 455.236938625 1067.5670817z M762.01216755 340.08089315C758.2024043499999 340.08089315 754.39264115 341.5393181249999 751.4757912 344.4264043L467.499613925 628.3430540249999L428.9555253000001 589.7989653999998C397.0487585 557.9517261499998 341.50955435 557.9517261499998 309.6920788750001 589.7989653999998C276.8328712750001 622.6581729999998 276.8328712750001 676.1436766749998 309.6920788750001 709.0028842749998C341.50955435 740.8203597499997 397.0487585 740.8798872999998 428.89599775 709.0028842749998L467.46985015 670.4290318749999L520.062440575 723.0216222999998L481.5183519499999 761.5657109249998C465.5947323249999 777.5190943249997 456.8144186999999 798.6811383499999 456.8144186999999 821.2123160249998S465.5947323249999 864.9055377249997 481.5183519499999 880.7993935749997C513.3358274249998 912.6168690499997 568.8750315749999 912.6466328249998 600.7222708249999 880.8291573499997C616.6458904499999 864.9055377249997 625.4262040749999 843.7137299249997 625.4262040749999 821.2123160249997C625.4262040749999 798.6811383499997 616.6458904499998 777.4893305499997 600.7222708249999 761.5954746999997L562.1781821999999 723.0216222999998L846.18412325 439.1049725749997C848.9819181 436.3071777249998 850.5296344 432.5271782999997 850.5296344 428.5685962249998S848.9521543249999 420.8300147249998 846.18412325 418.0322198749998L772.5187801249999 344.3668767499998C769.601930175 341.539318125 765.792166975 340.08089315 762.01216755 340.08089315zM488.572366625 649.38604295L762.0121675499998 375.9760058000001L814.6345217499999 428.5983600000001L541.1649570499999 701.978633375L488.572366625 649.38604295zM369.3089202 703.943042525C354.72467045 703.943042525 341.03333395 698.2879252749999 330.764831575 687.9598953499999C309.513496225 666.70856 309.513496225 632.093289675 330.764831575 610.841954325C351.361363875 590.2751857999999 387.316004075 590.2454220249999 407.972063925 610.841954325L446.456625 649.38604295L407.8827726 687.9598953499999C397.554742675 698.2581614999999 383.863406175 703.943042525 369.3089202 703.943042525zM541.1649570499999 875.7693155999999C526.5807073 875.7693155999999 512.8893707999999 870.0844345749999 502.620868425 859.7564046499999C492.2928385 849.4581384999999 486.607957475 835.7668019999999 486.607957475 821.212316025C486.607957475 806.6280662749999 492.2928385 792.936729775 502.59110465 782.6086998499999L541.135193275 744.0943749999999L579.6792819 782.6682274C589.97754805 792.96649355 595.662429075 806.65783005 595.662429075 821.2420797999998S589.97754805 849.5176660499999 579.6792819 859.8159321999999C569.410779525 870.0844345749999 555.7194430249999 875.7693155999999 541.1649570499999 875.7693155999999z" />
  </font>
</defs>
</svg>
